<?xml version="1.0" standalone="no"?>
<!DOCTYPE svg PUBLIC "-//W3C//DTD SVG 1.1//EN" "http://www.w3.org/Graphics/SVG/1.1/DTD/svg11.dtd" >
<svg xmlns="http://www.w3.org/2000/svg" xmlns:xlink="http://www.w3.org/1999/xlink" version="1.1">
<metadata>
Created by FontForge 20170104 at Tue May 28 16:24:35 2013
 By myTaste
Copyright (c) 2013 by Jacob Wagner. All rights reserved.
</metadata>
<defs>
<font id="EllipticaLight" horiz-adv-x="487" >
  <font-face 
    font-family="Elliptica-Light"
    font-weight="300"
    font-stretch="normal"
    units-per-em="1000"
    panose-1="0 0 0 0 0 0 0 0 0 0"
    ascent="750"
    descent="-250"
    x-height="478"
    cap-height="700"
    bbox="-132 -269 732 764"
    underline-thickness="50"
    underline-position="-100"
    unicode-range="U+0020-20AC"
  />
<missing-glyph horiz-adv-x="500" 
 />
    <glyph glyph-name=".notdef" horiz-adv-x="500" 
 />
    <glyph glyph-name=".null" horiz-adv-x="0" 
 />
    <glyph glyph-name="CR" horiz-adv-x="500" 
 />
    <glyph glyph-name="space" unicode=" " horiz-adv-x="500" 
 />
    <glyph glyph-name="A" unicode="A" horiz-adv-x="649" 
d="M13 0l245 701h56s6 -26 243 -701h-66l-94 265h-226c-30 -85 -62 -181 -92 -265h-66zM284 583l-89 -255h181z" />
    <glyph glyph-name="B" unicode="B" horiz-adv-x="643" 
d="M231 0h-225c1 222 1 450 1 700c0 0 234 1 344 1c106 0 204 -64 204 -188c0 -55 -33 -109 -72 -151c45 -47 72 -105 72 -165c0 -98 -59 -180 -152 -195h2c-57 -2 -115 -2 -174 -2zM-4 0l10 -10v10h-10zM75 328v-266h332c67 10 91 73 91 135c0 70 -31 114 -96 131h-327z
M75 638v-246c54 0 119 -1 171 -1h147c45 14 88 41 100 88v34c0 60 -32 116 -98 125h-320z" />
    <glyph glyph-name="C" unicode="C" horiz-adv-x="638" 
d="M72 346c0 -213 93 -284 213 -284c88 0 165 37 200 145h62c-38 -152 -142 -207 -263 -207c-154 0 -281 80 -278 350s125 351 278 351c117 0 222 -65 263 -207h-67c-35 103 -107 144 -195 144c-120 0 -213 -94 -213 -292z" />
    <glyph glyph-name="D" unicode="D" horiz-adv-x="668" 
d="M6 0v701c106 -1 228 -2 332 -3c107 -11 221 -68 242 -230c0 -64 -1 -188 -1 -253c-18 -194 -203 -217 -258 -216c-106 0 -209 1 -315 1zM75 638v-576l246 -3c95 -1 177 40 193 153v255c-7 129 -128 171 -180 168h1z" />
    <glyph glyph-name="E" unicode="E" horiz-adv-x="659" 
d="M5 699h558c1 -22 0 -41 1 -61h-489v-269c100 1 208 2 309 3v-64h-309v-246c69 0 147 1 213 1h277v-63c-186 0 -366 0 -559 1c0 237 -1 461 -1 698z" />
    <glyph glyph-name="F" unicode="F" horiz-adv-x="653" 
d="M6 0v703c38 -4 126 -4 224 -4c120 0 258 0 335 1v-61h-236c-72 0 -161 -1 -254 -1v-261c102 0 216 2 319 2v-71h-319v-308h-69zM-14 710h20v-7c-13 2 -20 4 -20 7z" />
    <glyph glyph-name="G" unicode="G" horiz-adv-x="650" 
d="M315 309v58h247v-67c-19 -223 -137 -300 -278 -300c-154 0 -281 80 -278 350s125 351 278 351c116 0 215 -45 256 -186h-73c-36 87 -102 123 -182 123c-120 0 -210 -96 -210 -293c0 -214 90 -283 210 -283c110 0 200 63 211 247h-181z" />
    <glyph glyph-name="H" unicode="H" horiz-adv-x="654" 
d="M7 701h68v-334c59 0 116 2 157 2c40 0 73 -2 103 -2h164v333h66v-285c-1 -84 -1 -167 -1 -249c0 -56 0 -115 1 -168c-25 0 -43 2 -66 2v300h-424v-302c-25 0 -44 2 -68 2c0 79 -1 149 -1 229c-1 79 -1 159 -1 239c0 78 0 155 2 233z" />
    <glyph glyph-name="J" unicode="J" horiz-adv-x="498" 
d="M8 172h70c19 -70 53 -111 123 -111c113 0 142 79 142 194v445h64v-515c0 -89 -70 -186 -152 -186h-95c-79 0 -145 87 -152 173z" />
    <glyph glyph-name="K" unicode="K" horiz-adv-x="643" 
d="M546 0h-76c-33 48 -62 91 -87 128c-163 238 -165 237 -175 237l-133 -139v-228c-24 0 -42 0 -69 1c0 136 -1 254 -1 363c0 165 0 289 1 338h69v-374l374 374h82l-270 -281c92 -136 192 -282 285 -419zM464 0l9 -4c-1 1 -2 2 -3 4h-6z" />
    <glyph glyph-name="L" unicode="L" horiz-adv-x="506" 
d="M415 0h-408s-1 58 -1 271c0 105 0 244 1 429h69v-630c110 0 228 -1 339 -1v-69z" />
    <glyph glyph-name="M" unicode="M" horiz-adv-x="750" 
d="M4 699h83l246 -632c87 208 197 455 255 631c26 0 48 1 75 1v-266c0 -117 1 -234 1 -276c0 -50 -1 -107 -1 -157h-57v557c-68 -166 -164 -393 -232 -558h-78l-221 556l-1 -555h-69c0 227 0 457 -1 699zM378 -1h-4c-1 -1 -1 -2 -1 -2s7 2 5 2zM291 -1c3 -1 5 -2 6 -3l-1 3
h-5zM298 -6l-1 2c1 -1 1 -2 1 -2z" />
    <glyph glyph-name="N" unicode="N" horiz-adv-x="653" 
d="M502 0l-412 583l-18 -8c2 -10 2 -402 2 -575h-68v699h74c4 0 2 3 419 -582v583h66v-700h-63z" />
    <glyph glyph-name="O" unicode="O" horiz-adv-x="650" 
d="M6 350c3 270 125 351 278 351c154 0 278 -81 278 -351s-124 -350 -278 -350s-281 80 -278 350zM75 345c0 -214 90 -283 210 -283c121 0 215 72 212 285c-3 206 -91 291 -212 291c-120 0 -210 -96 -210 -293z" />
    <glyph glyph-name="P" unicode="P" horiz-adv-x="645" 
d="M6 0v700c72 0 130 0 197 -1c50 0 147 -1 197 -1c91 -16 157 -98 157 -196c0 -91 -64 -198 -160 -197l-322 3v-308h-69zM76 370h323c69 14 92 67 92 136s-23 122 -95 132h-320c-1 -89 1 -178 0 -268z" />
    <glyph glyph-name="Q" unicode="Q" horiz-adv-x="650" 
d="M6 350c3 270 125 351 278 351c154 0 278 -81 278 -351c0 -145 -37 -238 -98 -293c18 -24 40 -54 59 -80c-18 -11 -33 -23 -48 -34l-62 81c-42 -17 -85 -24 -129 -24c-154 0 -281 80 -278 350zM310 161l51 39l64 -89c50 51 75 127 74 239c-3 206 -93 288 -214 288
c-120 0 -210 -90 -210 -288c0 -213 90 -288 210 -288c28 0 57 4 89 14c-18 25 -45 58 -64 85z" />
    <glyph glyph-name="S" unicode="S" horiz-adv-x="662" 
d="M6 221l69 -2c3 -63 56 -157 126 -157h160c74 0 138 54 138 129c0 89 -100 99 -212 113c-130 15 -276 31 -280 176c-5 127 90 219 200 219h140c82 0 206 -44 217 -204h-66c-18 140 -90 143 -177 143h-107c-145 -14 -140 -118 -139 -148v-5c0 -90 111 -104 222 -114
c131 -13 277 -29 277 -169c0 -167 -131 -202 -225 -202h-136c-106 0 -218 89 -207 221z" />
    <glyph glyph-name="T" unicode="T" horiz-adv-x="653" 
d="M260 638h-257v63h562v-63h-241v-295c0 -106 1 -218 1 -343h-64c-1 85 -1 170 -1 276v362z" />
    <glyph glyph-name="U" unicode="U" horiz-adv-x="653" 
d="M75 348c0 -213 90 -286 210 -286c121 0 214 76 214 289v349c25 0 43 -2 66 -2v-347c0 -270 -126 -351 -281 -351c-154 0 -283 80 -280 350c0 116 2 234 2 350h69v-352z" />
    <glyph glyph-name="V" unicode="V" horiz-adv-x="649" 
d="M10 700h71c-2 -2 8 -30 99 -288c25 -71 65 -185 104 -294c109 306 167 472 190 536c13 38 16 45 12 46h71c-193 -548 -235 -670 -244 -699h-55c-83 236 -164 463 -248 699z" />
    <glyph glyph-name="W" unicode="W" horiz-adv-x="818" 
d="M156 0l-149 700h60l114 -531h18c45 176 93 355 137 531h59l147 -534l19 1c36 176 75 357 111 533h60c-50 -239 -96 -462 -145 -700h-60l-146 563h-19c-47 -185 -99 -378 -146 -563h-60z" />
    <glyph glyph-name="X" unicode="X" horiz-adv-x="653" 
d="M17 0l221 338v11c-76 115 -156 236 -232 351h74l200 -296c65 93 139 201 204 296h72l-234 -350v-12c73 -112 148 -227 222 -338h-76l-188 286c-60 -91 -130 -194 -189 -286h-74z" />
    <glyph glyph-name="Y" unicode="Y" horiz-adv-x="632" 
d="M248 332l-234 368h66l201 -301c61 96 129 205 190 301h64l-220 -366v-333h-67v331z" />
    <glyph glyph-name="Z" unicode="Z" horiz-adv-x="647" 
d="M6 0v68c192 228 314 377 380 455c77 91 89 106 73 114c-40 0 -147 0 -248 1c-86 0 -170 1 -209 1v61h554v-71l-476 -567h479v-62h-553z" />
    <glyph glyph-name="I" unicode="I" horiz-adv-x="177" 
d="M78 -2l-66 1c0 81 0 190 -1 271c-1 102 -1 205 -1 310v120h68c0 -142 1 -239 1 -347c0 -105 -1 -214 -1 -355zM1 0l11 -10v9z" />
    <glyph glyph-name="R" unicode="R" horiz-adv-x="651" 
d="M305 308h-230v-308h-69v699c131 0 255 0 398 1c96 -5 159 -97 159 -202c0 -115 -62 -177 -185 -190c51 -94 116 -213 169 -308h-72zM75 370h329c68 14 95 60 95 128c0 67 -21 131 -93 140h-331v-268z" />
    <glyph glyph-name="b" unicode="b" 
d="M6 0v631c22 20 48 45 70 65v-291c43 39 83 74 125 74c109 0 198 -80 198 -240c0 -159 -89 -241 -198 -241c-42 0 -84 28 -125 56v-54h-70zM76 246c0 -148 55 -183 131 -183c77 0 115 64 115 173c0 97 -38 181 -115 181c-75 0 -129 -38 -131 -171z" />
    <glyph glyph-name="a" unicode="a" 
d="M333 0v63c-40 -32 -90 -65 -132 -65c-108 0 -195 58 -197 241c-2 179 88 240 197 240c43 0 97 -35 132 -77v77h66v-479h-66zM77 240c0 -139 54 -177 130 -177s126 67 126 177c0 97 -50 177 -126 177s-130 -36 -130 -177z" />
    <glyph glyph-name="c" unicode="c" horiz-adv-x="479" 
d="M79 236c0 -138 52 -173 128 -173c53 0 93 31 113 85h68c-28 -99 -102 -150 -187 -150c-108 0 -195 58 -197 241c-2 179 88 240 197 240c85 0 158 -50 186 -147h-70c-21 51 -61 85 -110 85c-76 0 -128 -39 -128 -181z" />
    <glyph glyph-name="d" unicode="d" 
d="M399 0h-70v54c-40 -28 -83 -56 -125 -56c-109 0 -198 82 -198 241c0 160 89 240 198 240c42 0 82 -35 125 -74c0 68 -2 157 -2 226c24 22 48 43 72 64v-695zM329 246c-2 133 -56 171 -131 171c-77 0 -115 -84 -115 -181c0 -109 38 -173 115 -173c76 0 131 35 131 183z
" />
    <glyph glyph-name="e" unicode="e" 
d="M399 246v-18h-324c7 -128 62 -176 133 -176c51 0 87 17 108 71h69c-28 -95 -100 -125 -184 -125c-108 0 -195 58 -197 241c-2 179 88 240 197 240c107 0 196 -77 198 -233zM207 417c-64 0 -117 -32 -133 -137h252c-4 105 -59 137 -119 137z" />
    <glyph glyph-name="g" unicode="g" horiz-adv-x="490" 
d="M7 236c-2 180 88 241 197 241c42 0 97 -29 132 -79c0 17 -1 56 -1 79h67l-1 -220c1 -7 1 -14 1 -21c0 -8 0 -15 -1 -23v-270c0 -76 -59 -124 -111 -169h1c-22 -15 -45 -28 -67 -43c-14 22 -22 34 -34 54c49 26 144 80 144 152v139c-36 -55 -89 -80 -130 -80
c-108 0 -195 58 -197 240zM76 230c0 -138 58 -170 134 -170c68 0 115 54 124 143v64c-8 83 -55 148 -124 148c-76 0 -134 -43 -134 -185z" />
    <glyph glyph-name="h" unicode="h" 
d="M76 0h-70v631c22 20 48 45 70 65v-296c42 54 83 79 125 79c109 0 198 -80 198 -240v-239h-66v239c0 98 -50 178 -126 178c-75 0 -131 -36 -131 -169v-248z" />
    <glyph glyph-name="k" unicode="k" 
d="M308 0l-139 231l-10 3l-83 -72v-162h-70v631c22 20 48 45 70 65v-436c68 67 153 151 222 219h86l-169 -178c0 -7 1 -11 3 -14l-1 2c57 -96 116 -193 174 -289h-83zM226 283l-8 4c3 -4 8 -4 8 -4z" />
    <glyph glyph-name="l" unicode="l" horiz-adv-x="177" 
d="M10 631l69 65v-696h-69v631z" />
    <glyph glyph-name="n" unicode="n" 
d="M76 0h-70v479h70v-77c45 56 67 74 126 77c100 7 197 -80 197 -240v-239h-66v239c0 98 -50 178 -126 178c-75 0 -131 -37 -131 -170v-247z" />
    <glyph glyph-name="o" unicode="o" 
d="M76 236c0 -138 55 -173 131 -173s124 64 124 173c0 97 -48 181 -124 181s-131 -39 -131 -181zM6 240c0 179 88 239 196 239s197 -61 197 -239c0 -183 -89 -240 -197 -240s-196 56 -196 240z" />
    <glyph glyph-name="p" unicode="p" horiz-adv-x="486" 
d="M-4 479l10 11v-11h-10zM76 -155v233c35 -56 82 -80 124 -80c110 0 198 80 198 241c0 158 -88 240 -198 240c-40 0 -73 -16 -124 -80v80h-70v-694c22 19 47 40 70 60zM76 239c0 138 54 176 130 176s120 -67 120 -176c0 -97 -44 -179 -120 -179c-74 0 -128 36 -130 179z
" />
    <glyph glyph-name="q" unicode="q" horiz-adv-x="486" 
d="M327 399v78h71v-625c-23 -23 -48 -48 -71 -70v296c-34 -56 -82 -80 -124 -80c-109 0 -198 80 -198 241c0 158 89 240 198 240c41 0 73 -16 124 -80zM398 488l10 -11h-10v11zM327 239c0 138 -54 176 -130 176s-120 -67 -120 -176c0 -97 44 -179 120 -179
c74 0 128 36 130 179z" />
    <glyph glyph-name="s" unicode="s" horiz-adv-x="496" 
d="M6 147h72c4 -28 30 -92 78 -92h93c30 0 88 23 88 77c0 62 -69 72 -144 79c-84 9 -183 21 -186 116c-3 86 64 153 141 153h95c73 0 165 -52 164 -153h-67c-4 28 -23 90 -100 90h-89c-56 -6 -74 -52 -74 -74c0 -64 72 -75 147 -84c81 -9 176 -21 176 -114
c0 -112 -92 -146 -156 -146h-95c-72 0 -147 61 -143 148z" />
    <glyph glyph-name="u" unicode="u" horiz-adv-x="489" 
d="M332 479l67 1c0 -89 1 -107 1 -132c0 -18 1 -33 1 -66c0 -44 -1 -125 -2 -282h-67v69c-39 -41 -89 -69 -131 -69c-108 0 -195 76 -195 236v244c25 0 48 -1 70 -1v-234c-4 -98 45 -182 119 -182s135 34 137 177v239z" />
    <glyph glyph-name="v" unicode="v" 
d="M243 0h-81c-118 362 -147 453 -155 478h72l125 -372c38 115 83 258 120 372h71c-86 -262 -119 -372 -138 -430c-11 -38 -13 -45 -14 -48zM154 0l11 -7c-1 2 -2 4 -3 7h-8z" />
    <glyph glyph-name="x" unicode="x" 
d="M157 229l-142 250h77l109 -199c32 55 78 140 112 198c28 0 51 1 78 1l-140 -245c0 -4 -4 -6 133 -234c-30 0 -42 -1 -71 -1l-112 190c-32 -56 -76 -132 -109 -189h-77c73 119 98 162 116 193c16 26 23 33 26 36z" />
    <glyph glyph-name="y" unicode="y" 
d="M167 -15l1 7c-120 369 -150 462 -158 487h75l120 -375c37 116 84 260 120 375h70c-76 -246 -151 -481 -227 -727h-80z" />
    <glyph glyph-name="z" unicode="z" horiz-adv-x="488" 
d="M6 69l316 348h-316v63h393v-70l-310 -347h310c0 -22 1 -42 1 -62h-395c0 26 1 42 1 68z" />
    <glyph glyph-name="f" unicode="f" horiz-adv-x="364" 
d="M93 417h-85v62h85v135c0 100 77 152 175 147v-61c-92 -7 -104 -43 -104 -172v-49h108c0 -22 -1 -43 -1 -62h-109v-417h-69v417z" />
    <glyph glyph-name="i" unicode="i" horiz-adv-x="177" 
d="M8 480h71v-480c-25 0 -48 -1 -71 -1v481zM67 589h-49c-7 -1 -10 7 -10 9v52c0 4 6 8 10 8h49c3 0 7 -4 7 -8v-52c0 -4 -4 -9 -7 -9z" />
    <glyph glyph-name="j" unicode="j" horiz-adv-x="177" 
d="M81 -76c0 -80 -118 -184 -173 -189l-34 58c103 56 137 109 137 148v539h70v-556zM-130 -202l1 -2s0 -4 -3 -6l6 3zM-90 -268l-2 3h-1c1 0 1 0 1 -1zM67 589h-49c-7 -1 -10 7 -10 9v52c0 4 6 8 10 8h49c3 0 7 -4 7 -8v-52c0 -4 -4 -9 -7 -9z" />
    <glyph glyph-name="r" unicode="r" horiz-adv-x="430" 
d="M77 0h-70v480h70v-86c30 48 76 85 125 85c52 0 99 -16 134 -53c-20 -16 -35 -26 -54 -41c-20 19 -46 32 -74 32c-75 0 -129 -37 -131 -170v-247z" />
    <glyph glyph-name="t" unicode="t" horiz-adv-x="356" 
d="M87 417h-87v62h87v152c23 21 48 44 70 65v-217h81v-62h-81v-253c0 -77 53 -99 107 -101c0 -23 -1 -44 -1 -65c-67 2 -176 27 -176 129v290z" />
    <glyph glyph-name="m" unicode="m" horiz-adv-x="796" 
d="M73 0h-70v479h70v-77c44 55 69 74 126 77c60 2 137 -21 179 -94c46 79 83 91 143 95c100 8 197 -80 197 -240v-239h-66v240c0 98 -50 177 -126 177c-71 0 -126 -34 -131 -156c1 -8 1 -16 1 -23v-239h-66v240c0 97 -50 177 -126 177c-75 0 -131 -37 -131 -170v-247z" />
    <glyph glyph-name="w" unicode="w" horiz-adv-x="748" 
d="M219 1h-70c-105 350 -135 449 -143 477h66l113 -375l112 375h75l113 -375l112 375h67c-60 -200 -92 -305 -113 -376c-21 -75 -28 -94 -30 -101h-68l-118 383c-42 -137 -78 -258 -94 -311c-16 -54 -20 -67 -22 -72zM141 1l10 -7c-1 2 -2 4 -2 7h-8z" />
    <glyph glyph-name="zero" unicode="0" horiz-adv-x="495" 
d="M207 1c-90 0 -200 70 -200 183v342c0 88 83 183 163 183h73c79 0 164 -95 164 -181v-348c0 -111 -110 -179 -200 -179zM207 647c-69 0 -140 -54 -140 -137v-307c0 -84 71 -137 140 -137c67 0 141 53 141 134v312c0 81 -74 135 -141 135z" />
    <glyph glyph-name="one" unicode="1" horiz-adv-x="482" 
d="M114 61h109v551c-29 -29 -45 -44 -55 -56c-4 3 -9 6 -14 12c-10 8 -21 19 -28 26c28 38 58 77 87 115h70v-648h110v-63h-279v63zM173 552c-1 1 -2 2 -4 3c10 9 20 18 19 16c-6 -7 -10 -14 -14 -19h-1zM168 556c-25 -25 -14 -14 1 -1zM123 590c1 1 2 3 3 4c-1 0 -1 1 -1 1
v1zM175 549c-1 2 0 3 -1 3l-1 -1c-1 0 1 -1 2 -2zM176 549h-1h1z" />
    <glyph glyph-name="two" unicode="2" horiz-adv-x="497" 
d="M5 0l1 68c12 9 55 56 320 385c16 23 25 50 25 76c0 80 -61 116 -125 116c-95 0 -155 -58 -166 -157h-55c2 136 101 217 221 217c92 0 183 -60 183 -173c0 -42 -13 -85 -39 -119l-276 -346h315v-67h-404z" />
    <glyph glyph-name="three" unicode="3" horiz-adv-x="497" 
d="M6 128l26 -28c37 -37 97 -37 140 -37c79 0 171 46 171 148c0 93 -64 124 -147 139c-14 2 -36 3 -52 3c11 19 13 23 25 42l-1 -1l174 248h-337v63h404v-73l-169 -231c91 -23 166 -85 166 -180c0 -148 -105 -220 -231 -220c-20 0 -169 19 -169 46v81z" />
    <glyph glyph-name="four" unicode="4" horiz-adv-x="498" 
d="M283 -1v258h-277v77c157 216 227 311 257 350c11 14 16 20 19 25h60v-386h68v-66h-68v-258h-59zM283 612l-214 -289h214v289z" />
    <glyph glyph-name="five" unicode="5" horiz-adv-x="497" 
d="M343 205v37c-3 56 -43 128 -107 129c-75 0 -155 2 -230 2v332c135 0 259 2 393 2v-61h-323v-216h181c93 0 142 -96 152 -194l-3 -32c-12 -139 -109 -206 -231 -206c-20 0 -169 18 -169 45v82l19 -19c37 -37 100 -43 143 -43c162 0 172 110 174 138c0 2 1 4 1 4z" />
    <glyph glyph-name="six" unicode="6" horiz-adv-x="498" 
d="M9 215c0 39 5 77 26 109c70 128 142 257 212 385h66c-140 -257 -143 -284 -143 -292c128 12 240 -48 240 -200c0 -119 -90 -218 -201 -218c-110 0 -200 97 -200 216zM79 209c0 -77 59 -138 130 -138s133 61 133 138c0 78 -61 141 -131 141c-74 0 -132 -60 -132 -141z" />
    <glyph glyph-name="seven" unicode="7" horiz-adv-x="494" 
d="M13 0l329 645h-325v65h389v-70c-109 -214 -220 -426 -329 -640h-64z" />
    <glyph glyph-name="eight" unicode="8" horiz-adv-x="495" 
d="M6 196c0 61 34 119 84 163c-52 45 -64 95 -64 157c0 112 79 181 186 181s175 -69 175 -190c0 -57 -5 -83 -58 -145c48 -48 78 -103 78 -166c0 -87 -67 -191 -164 -191h-70c-93 0 -167 100 -167 191zM76 195c0 -81 62 -124 133 -124c73 0 140 43 140 124
c0 79 -67 127 -140 127c-71 0 -133 -47 -133 -127zM88 522c0 -81 46 -122 118 -122c74 0 127 41 127 122c0 78 -53 111 -127 111c-48 0 -118 -25 -118 -111z" />
    <glyph glyph-name="nine" unicode="9" horiz-adv-x="498" 
d="M410 494c0 -39 -6 -76 -27 -110c-70 -128 -140 -257 -210 -385h-67c141 257 144 284 144 293c-21 -2 -31 -2 -42 -2c-109 0 -199 62 -199 202c0 118 91 217 201 217c111 0 200 -97 200 -215zM341 499c0 77 -60 138 -131 138s-132 -61 -132 -138c0 -78 60 -141 130 -141
c74 0 133 61 133 141z" />
    <glyph glyph-name="exclam" unicode="!" horiz-adv-x="171" 
d="M17 -9l-6 9c-2 1 -5 3 -5 5v48c0 3 4 6 6 6h54c2 0 6 -3 6 -6v-48c0 -2 -4 -6 -6 -6h-53c1 -1 4 -2 4 -8zM9 709h64v-525h-64v525z" />
    <glyph glyph-name="quotedbl" unicode="&#x22;" horiz-adv-x="296" 
d="M12 641h53c3 0 8 -6 8 -12v-47c0 -5 -4 -11 -8 -11h-49c-6 0 -9 6 -9 11v97c0 13 11 23 23 27v-8c-17 -15 -18 -23 -18 -42v-15zM145 641h49c3 0 8 -4 8 -7v-57c0 -3 -5 -6 -8 -6h-49c-4 0 -9 3 -9 6v108c0 9 10 17 20 21v-9c-12 -14 -11 -21 -11 -39v-17z" />
    <glyph glyph-name="numbersign" unicode="#" horiz-adv-x="549" 
d="M97 228h-91v72h89v128h-89v72h91v96h68v-96h129v96h71v-96h98v-72h-98v-128h98v-72h-98v-98h-71v98h-129v-98h-68v98zM168 428v-128h126v128h-126z" />
    <glyph glyph-name="dollar" unicode="$" horiz-adv-x="656" 
d="M185 -10l-9 10c-90 19 -169 79 -175 174h68c-4 -1 -3 -5 -2 -8c1 -6 4 -14 6 -17l-2 3c14 -43 59 -84 112 -84v257c-100 17 -174 93 -174 193s74 176 176 192v51h62v-50h80v50h65v-51c96 -13 176 -85 181 -182h-62c-7 54 -53 114 -119 114v-257c99 -17 176 -91 176 -191
c0 -108 -77 -167 -174 -194c0 -16 -2 -36 -2 -54h-65v54h-80v-54h-62v44zM74 148l-1 1s0 -1 1 -1zM394 320l-2 -253c66 7 116 68 116 127c0 51 -50 126 -114 126zM69 518c0 -54 49 -126 114 -126v253c-65 -15 -114 -66 -114 -127zM247 324v-256h79v256h-79zM247 642v-255h79
v255h-79z" />
    <glyph glyph-name="percent" unicode="%" horiz-adv-x="628" 
d="M409 707h66c-109 -241 -210 -466 -317 -708h-67c109 241 210 468 318 708zM8 545c0 62 50 102 110 102s108 -40 108 -102c0 -63 -49 -114 -109 -114s-109 51 -109 114zM54 540c0 -35 27 -61 63 -61s63 26 63 61c0 31 -27 61 -63 61s-63 -30 -63 -61zM327 165
c0 62 50 102 110 102c59 0 107 -40 107 -102c0 -63 -49 -114 -108 -114c-60 0 -109 51 -109 114zM372 159c0 -34 28 -60 64 -60c35 0 63 26 63 60c0 32 -28 62 -63 62c-36 0 -64 -30 -64 -62z" />
    <glyph glyph-name="ampersand" unicode="&#x26;" horiz-adv-x="670" 
d="M2 214c0 40 12 92 42 122l102 105c0 10 -7 20 -19 35c-21 27 -58 74 -58 119c0 72 63 115 129 115s120 -52 120 -120c0 -49 -43 -100 -74 -138c-1 -2 -4 -5 -11 -12c1 -1 7 -9 10 -12l202 -251l15 -15c23 38 29 88 31 121h55c-2 -56 -16 -117 -43 -166c0 -13 4 -17 8 -20
h-1c6 -7 26 -31 42 -51c7 -10 17 -21 19 -24v1c2 -3 3 -5 5 -8l-78 -3c-3 0 -10 11 -16 22c-8 12 -14 23 -22 30c-13 0 -36 -13 -53 -24v1c-12 -7 -21 -13 -25 -15c-39 -20 -86 -24 -130 -24c-125 0 -250 68 -250 212zM61 211c0 -110 100 -148 190 -148c58 0 113 11 166 51
l-9 16l-218 268l-100 -97c-21 -23 -29 -63 -29 -90zM126 596v-1c0 -24 50 -101 72 -101c21 18 64 61 64 96c0 36 -31 62 -64 62c-22 0 -65 -15 -72 -56z" />
    <glyph glyph-name="parenleft" unicode="(" horiz-adv-x="274" 
d="M178 761v-76c-54 -16 -104 -76 -104 -134v-366c0 -65 49 -118 105 -140v-78c-85 5 -162 75 -174 166v456c9 91 84 168 173 172z" />
    <glyph glyph-name="parenright" unicode=")" horiz-adv-x="278" 
d="M15 681v76c88 -4 163 -77 168 -172v-454c-11 -88 -87 -159 -169 -165v78c55 22 103 74 103 139v365c0 58 -49 117 -102 133z" />
    <glyph glyph-name="asterisk" unicode="*" horiz-adv-x="410" 
d="M51 450l66 89l-105 35l18 53l97 -30v111c24 0 36 2 59 2v-115c35 10 80 23 117 34c5 -22 9 -34 16 -54l-97 -30c0 -13 0 -13 3 -22c17 -25 35 -48 53 -73l-1 -1l-47 -33l-65 91c-18 -26 -46 -64 -65 -90l-1 -1c-16 10 -33 23 -48 34zM231 415l-1 1l-4 -2h4l6 -3
s-2 2 -5 4zM27 629h-3l6 -2l1 4c-2 -2 -4 -2 -4 -2zM325 577l-6 -2c0 -2 0 -4 1 -5v3l1 1zM280 451v1l-2 -2c2 -1 3 -4 4 -5zM10 575c0 -1 1 -3 1 -6l1 5zM102 414c-1 0 -2 1 -3 2l-2 -3c0 1 2 1 4 1h1zM5 577c2 0 4 0 5 -2zM33 636c0 -3 -1 -4 -2 -5zM225 413c0 0 0 1 1 1z
M11 569l-1 -3zM96 411c1 2 0 2 1 2z" />
    <glyph glyph-name="plus" unicode="+" horiz-adv-x="532" 
d="M195 342h-188v67h188v189h65v-189h185v-67h-185v-186h-65v186z" />
    <glyph glyph-name="hyphen" unicode="-" horiz-adv-x="499" 
d="M5 364h406v-58h-406v58z" />
    <glyph glyph-name="comma" unicode="," horiz-adv-x="169" 
d="M71 -36c0 -14 -10 -27 -23 -31v11c17 15 17 28 17 59h-52c-3 2 -8 5 -8 9v53c0 11 24 11 33 11c8 0 33 0 33 -11v-101zM48 -51l-3 -8l3 3v5z" />
    <glyph glyph-name="period" unicode="." horiz-adv-x="171" 
d="M68 -3h-52l-4 6v65c0 2 1 6 2 6h54c2 0 5 -4 5 -6v-67c0 -1 -3 -4 -5 -4zM17 -4l-1 1h-2zM11 -2l-1 1zM14 -3c-1 0 -2 0 -3 1z" />
    <glyph glyph-name="slash" unicode="/" horiz-adv-x="488" 
d="M329 708h66c-109 -241 -210 -466 -317 -708h-67c109 241 210 468 318 708z" />
    <glyph glyph-name="colon" unicode=":" horiz-adv-x="170" 
d="M20 367l-6 8h1h-1v1c-2 1 -5 3 -5 5v61c0 3 3 7 5 7h52c3 0 6 -4 6 -7v-61c0 -3 -3 -6 -6 -6h-51c1 -1 5 -2 5 -8zM18 14l-10 10h2c-1 0 0 0 -1 1v65c0 1 2 4 3 4h56c1 0 4 -3 4 -4v-64c0 -1 -3 -4 -4 -4h-55c1 -1 5 -2 5 -8z" />
    <glyph glyph-name="semicolon" unicode=";" horiz-adv-x="171" 
d="M73 -23c0 -10 -10 -20 -20 -24v14c13 11 16 30 16 57h-55c-1 0 -3 2 -3 4v63c0 7 26 7 30 7c6 0 32 0 32 -7v-114zM53 -28l-5 -10l5 5v5zM19 360l-3 8c-1 0 -1 0 -1 1h-1h1c-1 0 -3 1 -3 2c-2 1 -3 3 -3 4v60c0 4 3 8 5 8h51c3 0 8 -4 8 -8v-60c0 -2 -5 -6 -8 -6h-50
c1 -1 4 -2 4 -9z" />
    <glyph glyph-name="less" unicode="&#x3c;" 
d="M399 105l-386 229c131 79 255 154 386 233v-63l-266 -160l-1 -18c88 -52 180 -107 267 -159v-62zM6 336c0 0 0 -4 -2 -7c3 2 7 4 9 5l-7 5v-3zM0 343c5 0 6 -1 6 -4zM4 329c-1 -1 -2 -2 -4 -2c1 1 3 1 4 2z" />
    <glyph glyph-name="greater" unicode="&#x3e;" horiz-adv-x="502" 
d="M8 168l275 156v17c-91 52 -184 106 -275 158v61c136 -78 263 -149 398 -226c-133 -78 -264 -152 -398 -230v64zM414 340c-3 -3 -6 -5 -8 -6c3 -2 6 -4 9 -5l2 5c4 3 6 6 -3 6z" />
    <glyph glyph-name="equal" unicode="=" horiz-adv-x="497" 
d="M4 289h405v-60h-405v60zM4 376v63h405v-63h-405z" />
    <glyph glyph-name="question" unicode="?" horiz-adv-x="618" 
d="M260 236c0 66 52 112 116 112c39 -1 98 24 98 126c0 10 -1 24 -2 34c-2 115 -75 138 -120 138h-123c-138 0 -154 -62 -154 -135c0 -14 -22 -34 -34 -33s-33 20 -36 36v-2c-8 166 128 198 224 198h126c149 0 179 -116 179 -166v-111c0 -81 -60 -153 -158 -149
c-29 1 -56 -15 -56 -45v-55h-58c0 10 -1 10 -1 20c-1 12 -1 22 -1 32zM262 0l-1 1l-1 1c1 0 3 0 4 -1c-1 1 -3 2 -4 3v54c0 1 1 5 2 5h54c1 0 4 -4 4 -5v-55c0 -1 -3 -3 -4 -3h-54zM262 -1l-1 2l-1 1v1v1c-4 3 -8 5 -8 5z" />
    <glyph glyph-name="at" unicode="@" horiz-adv-x="744" 
d="M571 23h-20c-78 0 -113 66 -115 155c-51 -26 -81 -26 -118 -26c-70 0 -159 27 -159 117v165c0 55 49 116 102 116h112c9 0 17 -4 25 -7c10 -6 19 -9 38 -9v16h43v-408c0 -43 39 -68 74 -68c48 0 59 41 59 80v391c0 50 -59 103 -104 103h-344c-51 0 -104 -55 -104 -108
v-369c0 -53 53 -111 105 -111h163v-61h-182c-73 0 -145 81 -145 157v396c0 74 72 157 143 157h375c72 0 145 -83 145 -157v-372c0 -70 -23 -143 -93 -157zM318 191c47 0 111 30 111 90v139c0 41 -45 89 -84 89h-56c-38 0 -82 -52 -82 -91v-133c0 -63 60 -94 111 -94z" />
    <glyph glyph-name="bracketleft" unicode="[" horiz-adv-x="273" 
d="M10 708h168c0 -23 -1 -42 -1 -63h-104v-580h104v-65h-167v708z" />
    <glyph glyph-name="backslash" unicode="\" horiz-adv-x="480" 
d="M11 708h65c104 -237 206 -470 311 -708h-65c-105 238 -206 471 -311 708z" />
    <glyph glyph-name="bracketright" unicode="]" horiz-adv-x="258" 
d="M8 65h93v582h-91v61h153v-707h-155v64z" />
    <glyph glyph-name="asciicircum" unicode="^" horiz-adv-x="420" 
d="M84 498l121 202l116 -201c-18 -1 -36 -1 -53 -1l-64 109c-18 -30 -45 -77 -64 -109h-56zM339 499h-18l6 -10c1 -1 2 0 2 0z" />
    <glyph glyph-name="underscore" unicode="_" horiz-adv-x="649" 
d="M5 -21h561v-53h-561v53z" />
    <glyph glyph-name="braceleft" unicode="{" horiz-adv-x="422" 
d="M162 290l-146 71l146 78v148c0 99 86 170 167 177v-80c-49 -17 -101 -76 -101 -135v-160l-47 -27c10 -4 33 -16 47 -22v-157c0 -72 51 -117 104 -143v-81c-79 7 -170 75 -170 170v161zM337 37c-2 0 -3 2 -4 3c1 -1 3 -3 4 -3zM333 40c-1 1 -1 2 -1 3v-3h1z" />
    <glyph glyph-name="bar" unicode="|" horiz-adv-x="170" 
d="M9 758h63v-808h-63v808z" />
    <glyph glyph-name="braceright" unicode="}" horiz-adv-x="405" 
d="M103 342l44 28c-8 4 -30 15 -44 23v158c0 57 -51 116 -96 134v76c75 -5 159 -77 159 -170v-149c42 -23 90 -49 135 -73l-135 -74v-161c0 -93 -86 -162 -161 -165v77s44 27 49 33c25 26 49 69 49 110v153z" />
    <glyph glyph-name="asciitilde" unicode="~" horiz-adv-x="639" 
d="M159 337c-39 0 -68 -21 -94 -47l-58 50h-2c-2 34 124 73 154 73c50 0 89 -31 124 -58c33 -27 65 -52 107 -52c37 0 70 40 91 64c5 7 9 12 9 13c22 -13 45 -27 66 -39c-9 -57 -115 -110 -164 -110c-44 0 -80 26 -114 52c-35 26 -74 54 -119 54zM67 287l-2 3l-1 -1z" />
    <glyph glyph-name="Euro" unicode="&#x20ac;" horiz-adv-x="804" 
d="M159 230h-124v65h124v86h-124v65h124c2 120 51 265 192 265h186c101 0 183 -93 189 -188h-68c-21 59 -75 123 -145 123h-140c-66 0 -144 -69 -144 -140v-60h117v-65h-117v-86h117v-65h-117c0 -82 63 -167 147 -167h134c74 0 119 60 144 119c26 0 47 2 72 2
c-6 -89 -85 -185 -182 -185h-201c-120 0 -179 126 -184 231z" />
    <glyph glyph-name="yen" unicode="&#xa5;" horiz-adv-x="645" 
d="M111 289h148v60c-1 0 -3 0 -8 1l-16 26h-124v63h83c-53 85 -117 184 -171 271h73l171 -271h42c57 89 116 182 175 271h71l-174 -271h135v-63h-174l-24 -36v-51h198v-60h-198v-227h-57c0 15 0 59 -1 97c0 43 -1 84 -1 99v31h-148v60z" />
    <glyph glyph-name="quoteleft" unicode="&#x2018;" horiz-adv-x="178" 
d="M46 562c-9 0 -35 0 -35 12v105c0 14 10 25 21 30v-11c-13 -16 -14 -29 -14 -61h52c1 -1 3 -2 4 -2c3 -2 6 -3 6 -8v-53c0 -12 -26 -12 -34 -12z" />
    <glyph glyph-name="quotesingle" unicode="'" horiz-adv-x="170" 
d="M20 635l-7 4h3c1 -2 3 -3 4 -4zM41 707c7 0 31 -1 30 -12l-1 -96c0 -12 -8 -22 -19 -26v8c15 17 14 27 14 58h-49c-1 0 -1 1 -1 1c-3 2 -6 4 -6 8v49c0 10 24 10 32 10z" />
    <glyph glyph-name="quoteright" unicode="&#x2019;" horiz-adv-x="174" 
d="M76 591c0 -12 -11 -20 -23 -24v11c16 12 14 18 14 34v19h-53c-2 0 -5 5 -5 11v56c0 3 3 7 5 7h56c2 0 6 -4 6 -7v-107zM53 583l-5 -8c2 1 3 2 5 3v5z" />
    <glyph glyph-name="grave" unicode="`" horiz-adv-x="328" 
d="M15 664l23 45c67 -34 127 -63 194 -97c-10 -17 -15 -29 -23 -45c-67 34 -127 63 -194 97z" />
    <glyph glyph-name="quotedblleft" unicode="&#x201c;" horiz-adv-x="284" 
d="M15 647l52 -4c2 0 5 -6 5 -13v-46c0 -7 -3 -12 -5 -12h-50c-4 0 -8 5 -8 12v98c0 13 12 22 21 26v-10c-16 -16 -15 -23 -15 -51zM139 643h45c3 0 6 -4 6 -8v-57c0 -3 -3 -6 -6 -6h-47c-3 0 -7 3 -7 6v108c0 11 10 20 19 25v-13c-11 -12 -10 -20 -10 -38v-17z" />
    <glyph glyph-name="endash" unicode="&#x2013;" horiz-adv-x="647" 
d="M4 355h560v-51h-560v51z" />
    <glyph glyph-name="emdash" unicode="&#x2014;" horiz-adv-x="752" 
d="M1 355h671v-51h-671v51z" />
    <glyph glyph-name="quotedblright" unicode="&#x201d;" horiz-adv-x="290" 
d="M74 602c0 -11 -8 -20 -19 -24v6c15 16 15 31 15 57h-49c-1 1 -1 1 -3 2l-8 7v51c0 7 20 7 31 7h4c10 0 29 0 29 -7v-99zM55 589l-3 -8l3 3v5zM196 598c0 -9 -10 -17 -20 -20v8c15 12 17 29 17 55h-57c-1 0 -2 4 -2 5v57c0 5 20 5 27 5h6c8 0 29 0 29 -5v-105zM176 592
l-4 -9c1 1 2 2 4 3v6z" />
    <glyph glyph-name="bullet" unicode="&#x2022;" horiz-adv-x="408" 
d="M125 302c0 45 37 81 83 81s84 -36 84 -81s-38 -80 -84 -80s-83 35 -83 80z" />
    </font>
</defs>
</svg>
